<svg width="136" height="34" viewBox="0 0 136 34" fill="none"
  xmlns="http://www.w3.org/2000/svg">
  <path fill-rule="evenodd" clip-rule="evenodd" d="M16.6641 0.920058C17.5885 0.956855 18.8641 1.12244 19.5296 1.26963C20.1952 1.43521 21.3229 1.78478 22.0254 2.04235C22.728 2.31833 23.9481 2.94387 24.7061 3.45902C25.4641 3.95577 26.6473 4.91248 27.3128 5.57482C27.9784 6.23716 28.9397 7.41465 29.4389 8.16898C29.9565 8.9233 30.6221 10.248 30.9363 11.1127C31.2506 11.9774 31.6019 13.1733 31.7498 13.7804C31.8792 14.3876 31.9901 15.8043 31.9716 16.9082C31.9716 18.3616 31.8607 19.3919 31.5834 20.551C31.3616 21.4341 30.9363 22.6668 30.659 23.2924C30.3632 23.9363 29.8456 24.9114 29.4943 25.4633C29.1246 26.0153 28.3111 27.0456 27.6456 27.7447C26.9985 28.4439 25.9632 29.3638 25.3532 29.7869C24.7431 30.2285 23.7263 30.8356 23.0792 31.1484C22.4506 31.4612 21.212 31.9395 20.3246 32.2155C18.8826 32.6387 18.4019 32.6939 16.017 32.6939C13.6322 32.6939 13.1515 32.6387 11.728 32.2155C10.8221 31.9395 9.58344 31.4612 8.95487 31.1484C8.30782 30.8356 7.29101 30.2285 6.68093 29.7869C6.07085 29.3638 5.03555 28.4439 4.3885 27.7447C3.72295 27.0456 2.90951 26.0153 2.53976 25.4633C2.1885 24.9114 1.67086 23.9547 1.39355 23.3475C1.11624 22.7404 0.728001 21.5445 0.52464 20.6798C0.321279 19.8151 0.0994304 18.5824 0.025481 17.9201C-0.0299811 17.2577 0.00699365 15.9882 0.117918 15.0683C0.228842 14.1484 0.580102 12.6766 0.875899 11.7566C1.1717 10.8367 1.81875 9.43846 2.29943 8.64733C2.7801 7.83781 3.7969 6.54993 4.55488 5.7772C5.31287 4.98608 6.57001 3.93737 7.32799 3.44062C8.08597 2.94387 9.41706 2.28153 10.286 1.96876C11.1549 1.65599 12.3565 1.30642 12.9666 1.19603C13.5767 1.08564 14.2792 0.956855 14.5381 0.920058C14.7969 0.864863 15.7582 0.864863 16.6641 0.920058ZM13.2255 9.60404L11.8574 13.3389L6.40362 13.3205V15.8962C9.97168 15.8962 10.8406 15.9698 10.8406 16.0802C10.8406 16.1722 10.7112 16.5586 10.5633 16.9082L10.286 17.5521H6.40362V20.1279C8.54815 20.1279 9.2137 20.183 9.25067 20.2566C9.28765 20.3486 8.99185 21.2685 8.60362 22.3356C8.19689 23.4027 7.88261 24.3227 7.88261 24.3962C7.88261 24.4882 8.4742 24.5434 9.17672 24.5434H10.4708C10.896 23.3291 11.2473 22.354 11.5431 21.5997L12.0608 20.2198L19.9918 20.1279C20.6759 22.0597 21.0271 23.0532 21.212 23.5683L21.5633 24.5434C23.5969 24.5434 24.1515 24.4698 24.1515 24.3595C24.1515 24.2491 23.8372 23.3108 23.4675 22.2437C23.0792 21.1766 22.8019 20.275 22.8389 20.2198C22.8759 20.1646 23.5229 20.1279 24.2809 20.1279H25.6305V17.5521H21.7481C21.3044 16.485 21.1935 16.117 21.1935 16.025C21.1935 15.9514 22.1918 15.8962 23.412 15.8962H25.6305V13.3205H20.1767C18.0507 7.54344 17.3481 5.814 17.2372 5.7404C17.1263 5.66681 16.5717 5.59322 16.017 5.59322C15.4624 5.59322 14.9078 5.66681 14.7969 5.7404C14.686 5.814 13.9834 7.54343 13.2255 9.60404Z" fill="#111111" />
  <path fill-rule="evenodd" clip-rule="evenodd" d="M43.0652 0.80957H44.2299C45.1913 0.80957 45.4316 0.864765 45.5241 1.14074C45.5795 1.30632 46.7442 4.50762 48.1123 8.26087C49.4803 11.9957 50.5896 15.0866 50.5896 15.1234C50.5896 15.1418 50.0719 15.1418 48.3156 15.0682L46.9476 11.0206H41.2904L39.7745 15.1786L37.6484 15.1602L37.9997 14.2771C38.1846 13.7987 39.4047 10.5791 40.6989 7.10178L43.0652 0.80957ZM42.8988 6.60502C42.4552 7.81931 42.0854 8.92321 42.0854 9.05199C42.0854 9.21758 42.6215 9.27277 44.119 9.27277C45.3577 9.27277 46.1526 9.21758 46.1526 9.08879C46.1526 8.9968 45.7274 7.69052 45.2098 6.20026C44.6921 4.71 44.2484 3.45892 44.2299 3.42212C44.2115 3.36693 44.082 3.58771 43.9526 3.88208C43.8232 4.17645 43.361 5.39074 42.8988 6.60502ZM51.8837 0.80957H53.7324V4.67321C53.7324 6.80741 53.8064 8.59204 53.8803 8.62883C53.9543 8.66563 54.9156 7.80091 58.04 4.67321H59.2232C59.8702 4.67321 60.3879 4.7468 60.4064 4.82039C60.4064 4.89399 59.5744 5.72191 58.5576 6.66022C57.5223 7.59853 56.6904 8.46325 56.6904 8.59204C56.6904 8.72083 57.5593 10.1375 58.5946 11.7565C59.6484 13.3756 60.5543 14.8107 60.6282 14.9394C60.7392 15.105 60.4618 15.1602 58.3543 15.1602L55.119 9.99031L53.7324 11.3886V15.1602H51.8837V0.80957ZM94.4971 4.43403C95.0147 4.48922 95.7542 4.67321 96.1609 4.85719C96.5677 5.02277 97.2147 5.51953 97.6029 5.94269C98.0097 6.40264 98.3979 7.08338 98.5643 7.67212C98.7307 8.20567 98.8601 9.14398 98.8601 9.73273C98.8601 10.3399 98.6937 11.3886 98.4903 12.0325C98.287 12.7132 97.8618 13.5596 97.5105 13.9459C97.1777 14.3507 96.5677 14.8291 96.1609 15.0498C95.7172 15.2706 94.9038 15.4546 94.1273 15.4914C93.0551 15.565 92.6668 15.5098 91.8349 15.1418C91.2803 14.9026 90.5962 14.4427 90.3189 14.1115C90.0231 13.7803 89.6534 13.21 89.4685 12.8236C89.2467 12.3269 89.1542 11.591 89.1542 10.1927C89.1357 8.72083 89.2282 8.07689 89.487 7.43295C89.6719 6.99139 90.0046 6.36585 90.2265 6.07147C90.4483 5.7771 90.9475 5.33554 91.3542 5.07797C91.7609 4.83879 92.4265 4.56282 92.8332 4.48922C93.2399 4.39723 93.9979 4.37883 94.4971 4.43403ZM92.0382 6.75221C91.8164 6.97299 91.4836 7.54334 91.2988 8.00329C91.0954 8.51844 90.9845 9.32797 91.003 10.1927C91.003 11.2414 91.1139 11.7749 91.4097 12.3637C91.6315 12.7868 92.0937 13.302 92.4265 13.5044C92.7777 13.7252 93.3508 13.8723 93.813 13.8723C94.2382 13.8723 94.8668 13.762 95.1996 13.6148C95.5508 13.4492 95.9761 13.026 96.2534 12.5477C96.6231 11.9221 96.7155 11.4438 96.7895 10.1007C96.8634 8.70243 96.808 8.33446 96.4752 7.61693C96.2719 7.17537 95.8466 6.66022 95.5693 6.49463C95.292 6.31065 94.7189 6.14507 94.3122 6.08987C93.9055 6.03468 93.3324 6.07147 93.0181 6.16347C92.7223 6.25546 92.2786 6.53143 92.0382 6.75221ZM66.3038 4.50762C67.1173 4.50762 67.7828 4.63641 68.3375 4.87559C68.7996 5.09637 69.3727 5.44593 69.6131 5.66671C69.8534 5.88749 70.2047 6.36585 70.3896 6.75221C70.5929 7.13857 70.8332 8.04009 70.9442 8.77602C71.0551 9.51195 71.0921 10.2111 71.0366 10.3399C70.9627 10.5055 70.0013 10.5607 63.3459 10.5607L63.4568 11.1678C63.5307 11.499 63.7156 12.0509 63.882 12.4005C64.0484 12.7684 64.4736 13.2468 64.8249 13.4676C65.2316 13.7436 65.7492 13.8907 66.2114 13.8907C66.6181 13.8907 67.2467 13.7436 67.598 13.5596C67.9677 13.3756 68.4669 12.9156 68.7072 12.5477C69.1324 11.9037 69.2433 11.8485 70.0568 11.8485C70.8702 11.8485 70.9257 11.8853 70.8148 12.2717C70.7593 12.4925 70.519 13.0076 70.2786 13.4124C70.0568 13.8355 69.5391 14.3875 69.1509 14.6451C68.7627 14.921 68.0232 15.2522 67.5055 15.3626C67.0064 15.4914 66.1744 15.5466 65.6568 15.4914C65.1576 15.4362 64.3996 15.2338 63.9929 15.0314C63.5862 14.8291 62.9946 14.3507 62.6618 13.9459C62.3291 13.5596 61.9223 12.8604 61.7744 12.4005C61.6081 11.9405 61.4971 10.947 61.4971 10.1007C61.4971 9.29117 61.6081 8.26087 61.7744 7.80091C61.9223 7.35935 62.403 6.56823 62.8282 6.07147C63.2719 5.57472 63.9559 5.02277 64.3627 4.83879C64.8433 4.63641 65.5459 4.50762 66.3038 4.50762ZM63.9929 7.30416C63.845 7.52494 63.6602 8.02169 63.5862 8.40805L63.4383 9.10719C68.3929 9.10719 69.0769 9.0336 69.0769 8.86801C69.0769 8.73922 68.966 8.31606 68.8551 7.9297C68.7257 7.54334 68.3929 7.00979 68.0971 6.73381C67.6904 6.34745 67.3576 6.23706 66.5257 6.18186C65.7122 6.14507 65.3425 6.21866 64.8803 6.51303C64.5475 6.71541 64.1593 7.08338 63.9929 7.30416ZM77.9139 4.50762C78.45 4.50762 79.171 4.61801 79.5223 4.7652C79.8921 4.93078 80.2988 5.26195 80.724 5.96109L81.4635 5.31715C81.9072 4.94918 82.4988 4.63641 82.9055 4.56282C83.2752 4.50762 84.0147 4.48922 84.5139 4.52602C85.0315 4.56282 85.6786 4.7652 85.9559 4.96758C86.2332 5.16996 86.6215 5.64831 86.8248 6.05308C87.1576 6.73381 87.1946 7.17537 87.1946 15.1602H85.3458L85.2534 7.04658L84.7542 6.60502C84.4584 6.34745 84.0147 6.16347 83.682 6.16347C83.3862 6.16347 82.8315 6.29225 82.4433 6.47624C81.9811 6.69702 81.6668 7.02818 81.445 7.54334C81.1492 8.15048 81.1122 8.81282 81.0937 15.1786H79.245L79.1526 7.04658L78.6534 6.60502C78.3391 6.32905 77.9139 6.16347 77.5442 6.16347C77.2114 6.16347 76.6753 6.32905 76.3425 6.53143C76.0097 6.73381 75.5845 7.12018 75.4181 7.39615C75.1408 7.81931 75.0853 8.42645 74.9929 15.1786H73.1442V4.6916H74.0685C74.9929 4.6916 74.9929 4.6916 74.9929 5.88749L75.4181 5.48273C75.64 5.28035 76.0837 4.96758 76.3795 4.80199C76.6937 4.63641 77.3778 4.50762 77.9139 4.50762ZM106.181 4.54442C107.198 4.58121 107.623 4.67321 108.03 4.98598C108.326 5.18836 108.714 5.59312 108.917 5.86909C109.268 6.32905 109.287 6.69702 109.379 15.1786H107.531V11.499C107.531 8.66563 107.475 7.67212 107.272 7.21217C107.124 6.881 106.791 6.51303 106.532 6.38424C106.274 6.25546 105.737 6.14507 105.368 6.14507C104.942 6.14507 104.425 6.31065 104.037 6.56823C103.704 6.78901 103.26 7.26736 103.075 7.61693C102.779 8.16888 102.742 8.73922 102.724 15.1786H100.875V4.6916H101.707C102.447 4.6916 102.539 4.7284 102.539 5.09637C102.539 5.31715 102.595 5.57472 102.668 5.64831C102.761 5.70351 103.075 5.57472 103.371 5.33554C103.685 5.09637 104.147 4.80199 104.388 4.6916C104.647 4.58122 105.46 4.52602 106.181 4.54442ZM116.405 4.54442C117.754 4.58121 118.309 4.6916 118.789 4.96758C119.141 5.16996 119.603 5.55632 119.806 5.8507C120.176 6.32905 120.213 6.67862 120.379 13.7987L120.897 13.8355C121.359 13.8723 121.396 13.9459 121.359 14.5715C121.304 15.2522 121.304 15.2706 120.435 15.3074C119.954 15.3258 119.381 15.2706 119.178 15.1786C118.974 15.0682 118.771 14.7739 118.716 14.5347C118.679 14.2771 118.549 14.0747 118.438 14.0747C118.346 14.0747 118.216 14.1483 118.161 14.2587C118.124 14.3507 117.643 14.6635 117.107 14.921C116.331 15.3258 115.868 15.4178 114.833 15.4362C113.835 15.4362 113.41 15.3626 112.892 15.0498C112.541 14.8291 112.06 14.3139 111.838 13.8539C111.616 13.4124 111.413 12.75 111.413 12.3637C111.413 11.9773 111.524 11.407 111.653 11.0758C111.801 10.7446 112.189 10.2663 112.541 9.99031C112.892 9.71433 113.502 9.41996 113.909 9.30957C114.316 9.19918 115.369 9.0336 116.22 8.90481C117.2 8.77602 117.921 8.59204 118.124 8.38966C118.309 8.22407 118.457 7.8745 118.457 7.63533C118.457 7.37775 118.327 6.97299 118.161 6.75221C117.976 6.45784 117.569 6.27386 116.83 6.12667C115.961 5.94269 115.628 5.96109 115.037 6.16347C114.593 6.32905 114.205 6.62342 114.075 6.8994C113.946 7.13857 113.798 7.48814 113.742 7.67212C113.668 7.9113 113.428 8.00329 112.8 8.00329C112.042 8.00329 111.968 7.9481 111.968 7.54334C111.968 7.28576 112.06 6.8442 112.171 6.56823C112.282 6.29225 112.541 5.86909 112.763 5.62992C112.984 5.39074 113.502 5.02277 113.909 4.83879C114.519 4.54442 114.981 4.48922 116.405 4.54442ZM115.665 10.5791C114.648 10.7446 114.168 10.9286 113.872 11.2414C113.631 11.499 113.447 11.9037 113.447 12.2349C113.447 12.5293 113.521 12.9156 113.595 13.0812C113.668 13.2468 113.964 13.486 114.242 13.6332C114.519 13.7619 115.018 13.8907 115.351 13.8907C115.684 13.8907 116.312 13.7068 116.774 13.4676C117.218 13.2468 117.736 12.842 117.921 12.6029C118.124 12.3269 118.309 11.6829 118.364 11.0758C118.42 10.4871 118.383 10.0271 118.309 10.0271C118.235 10.0455 117.921 10.1191 117.606 10.2111C117.31 10.2847 116.442 10.4503 115.665 10.5791ZM39.1274 18.4903H49.1106V20.3301H41.161V24.5617H48.1862V26.4016H41.161V32.841H39.1274V18.4903ZM91.0769 18.4903H92.7408V32.841H91.9088C91.1139 32.841 91.0769 32.8042 91.0769 31.7371L90.4298 32.289C90.0786 32.5834 89.4685 32.9145 89.0988 33.0065C88.7105 33.1169 88.0635 33.1905 87.6567 33.1905C87.25 33.1905 86.5475 33.0065 86.1038 32.7858C85.6601 32.565 85.0315 32.0682 84.7173 31.7187C84.403 31.3507 83.9963 30.5596 83.7929 29.9708C83.5341 29.1245 83.4786 28.5174 83.5341 27.3215C83.608 26.1256 83.7374 25.5 84.1072 24.6905C84.403 24.065 84.9021 23.4026 85.3088 23.0899C85.6786 22.7771 86.3257 22.4459 86.7324 22.3355C87.1391 22.2068 87.8971 22.1516 88.3962 22.1884C89.0063 22.2436 89.5979 22.4459 90.1156 22.7587C90.5408 23.0347 90.9475 23.2739 90.9845 23.2739C91.0399 23.2739 91.0769 22.1884 91.0769 20.8821V18.4903ZM86.2702 24.8009C85.9189 25.2425 85.6416 25.8312 85.5122 26.5303C85.3643 27.3215 85.3643 27.8734 85.5122 28.7013C85.6416 29.3085 85.882 30.0444 86.0668 30.3572C86.2702 30.6516 86.7139 31.0379 87.0836 31.2219C87.4534 31.4059 88.0265 31.5347 88.3593 31.5347C88.692 31.5347 89.2282 31.3691 89.5609 31.1667C89.8937 30.9643 90.3374 30.4492 90.5593 30.026C90.892 29.4005 90.966 28.9221 90.9845 27.6894C90.9845 26.4752 90.9105 25.9416 90.6147 25.3897C90.4114 24.9849 89.9677 24.4513 89.5979 24.2306C89.2097 23.973 88.692 23.8074 88.3038 23.8258C87.9525 23.8258 87.4719 23.9178 87.25 23.9914C87.0282 24.0834 86.5845 24.4513 86.2702 24.8009ZM111.968 18.4903H113.816V20.5141H111.968V18.4903ZM106.81 19.4102H108.64V22.3539H110.304V23.8258H108.64V27.3583C108.64 29.9708 108.695 30.9643 108.88 31.1299C109.01 31.2587 109.379 31.3691 109.712 31.3691C110.285 31.3691 110.304 31.3875 110.304 32.105C110.304 32.8042 110.285 32.841 109.62 32.9513C109.231 33.0065 108.64 33.0065 108.27 32.9513C107.919 32.8778 107.457 32.657 107.253 32.4546C106.921 32.1234 106.884 31.7739 106.699 23.9178L106.015 23.8626C105.331 23.8258 105.312 23.8074 105.312 23.0899C105.312 22.3539 105.331 22.3355 106.699 22.2619L106.81 19.4102ZM55.6736 22.0964C56.1913 22.1516 56.9308 22.3355 57.3375 22.5195C57.7442 22.6851 58.3913 23.1819 58.7795 23.605C59.2047 24.065 59.5744 24.7457 59.7593 25.3345C59.9072 25.868 60.0366 26.7879 60.0366 27.4135C60.0366 28.0206 59.8702 29.0509 59.6669 29.7132C59.4635 30.3756 59.0383 31.2219 58.6871 31.6083C58.3543 32.013 57.7442 32.4914 57.3375 32.7122C56.8938 32.9329 56.0803 33.1169 55.3039 33.1537C54.2316 33.2273 53.8619 33.1721 53.0114 32.8042C52.4753 32.565 51.7913 32.105 51.4955 31.7739C51.1997 31.4427 50.8299 30.8723 50.6635 30.486C50.4417 29.9892 50.3493 29.2533 50.3308 27.855C50.3308 26.3832 50.4047 25.7392 50.6635 25.1137C50.8484 24.6537 51.1812 24.0282 51.403 23.7338C51.6249 23.4394 52.124 22.9979 52.5308 22.7403C52.9375 22.5011 53.603 22.2252 54.0098 22.1516C54.4165 22.0596 55.1745 22.0412 55.6736 22.0964ZM53.2333 24.4145C52.9929 24.6353 52.6602 25.2057 52.4938 25.6656C52.2904 26.1808 52.1795 26.9903 52.1795 27.8734C52.1795 28.9037 52.2904 29.4373 52.6047 30.026C52.8266 30.4492 53.2703 30.9643 53.603 31.1667C53.9543 31.3875 54.5274 31.5347 54.9896 31.5347C55.4148 31.5347 56.0434 31.4243 56.3761 31.2771C56.7274 31.1115 57.1526 30.6884 57.4299 30.21C57.7997 29.5845 57.9106 29.1061 57.966 27.7814C58.04 26.3648 57.9845 25.9968 57.6518 25.2977C57.4484 24.8377 57.0417 24.3226 56.7459 24.157C56.4686 23.973 55.8955 23.8074 55.4887 23.7522C55.082 23.697 54.5089 23.7338 54.1946 23.8258C53.8988 23.9178 53.4551 24.1938 53.2333 24.4145ZM121.119 22.0964C121.637 22.1516 122.376 22.3355 122.783 22.5195C123.189 22.6851 123.837 23.1819 124.225 23.605C124.65 24.065 125.02 24.7457 125.205 25.3345C125.352 25.868 125.482 26.7879 125.482 27.4135C125.482 28.0206 125.315 29.0509 125.112 29.7132C124.909 30.3756 124.484 31.2219 124.132 31.6083C123.8 32.013 123.189 32.4914 122.783 32.7122C122.339 32.9329 121.526 33.1169 120.749 33.1537C119.677 33.2273 119.307 33.1721 118.457 32.8042C117.921 32.565 117.237 32.105 116.941 31.7739C116.645 31.4427 116.275 30.8723 116.109 30.486C115.887 29.9892 115.795 29.2533 115.776 27.855C115.776 26.3832 115.85 25.7392 116.109 25.1137C116.294 24.6537 116.626 24.0282 116.848 23.7338C117.07 23.4394 117.569 22.9979 117.976 22.7403C118.383 22.5011 119.048 22.2252 119.455 22.1516C119.862 22.0596 120.62 22.0412 121.119 22.0964ZM118.679 24.4145C118.438 24.6353 118.105 25.2057 117.939 25.6656C117.736 26.1808 117.625 26.9903 117.625 27.8734C117.625 28.9037 117.736 29.4373 118.05 30.026C118.272 30.4492 118.716 30.9643 119.048 31.1667C119.4 31.3875 119.973 31.5347 120.435 31.5347C120.86 31.5347 121.489 31.4243 121.821 31.2771C122.173 31.1115 122.598 30.6884 122.875 30.21C123.245 29.5845 123.356 29.1061 123.411 27.7814C123.485 26.3648 123.43 25.9968 123.097 25.2977C122.894 24.8377 122.487 24.3226 122.191 24.157C121.914 23.973 121.341 23.8074 120.934 23.7522C120.527 23.697 119.954 23.7338 119.64 23.8258C119.344 23.9178 118.9 24.1938 118.679 24.4145ZM78.45 22.2068C79.4668 22.2436 79.9105 22.3355 80.2988 22.6483C80.5946 22.8507 80.9828 23.2555 81.1862 23.5314C81.5374 23.9914 81.5744 24.3594 81.6484 32.841H79.7996V29.1429C79.7996 26.328 79.7442 25.3345 79.5408 24.8745C79.3929 24.5433 79.0601 24.1754 78.8013 24.0466C78.5425 23.9178 78.0248 23.8074 77.6366 23.8074C77.2114 23.8074 76.6937 23.973 76.3055 24.2306C75.9727 24.4513 75.529 24.9297 75.3442 25.2793C75.0669 25.8312 75.0114 26.4016 74.9929 32.841L73.1442 32.8226V22.3355H73.9761C74.7341 22.3355 74.808 22.3907 74.808 22.7587C74.808 22.9795 74.8635 23.2371 74.9559 23.3107C75.0299 23.3658 75.3442 23.2371 75.64 22.9979C75.9542 22.7587 76.4164 22.4643 76.6568 22.3539C76.9156 22.2436 77.729 22.1884 78.45 22.2068ZM99.766 22.2068C101.116 22.2436 101.67 22.3539 102.151 22.6299C102.502 22.8323 102.964 23.2187 103.168 23.513C103.537 23.9914 103.574 24.341 103.741 31.4427L104.258 31.4979C104.721 31.5347 104.758 31.6083 104.721 32.2338C104.665 32.9145 104.665 32.9329 103.796 32.9697C103.316 32.9881 102.742 32.9329 102.539 32.8226C102.336 32.7306 102.132 32.4362 102.077 32.1786C102.04 31.9394 101.91 31.7187 101.8 31.7187C101.707 31.7187 101.578 31.8106 101.522 31.9026C101.485 32.013 101.005 32.3258 100.468 32.5834C99.692 32.9881 99.2298 33.0801 98.1945 33.0985C97.1962 33.0985 96.771 33.0249 96.2534 32.7122C95.9021 32.4914 95.4399 31.9762 95.1996 31.5163C94.9777 31.0747 94.7929 30.4124 94.7929 30.026C94.7744 29.6397 94.8853 29.0693 95.0332 28.7381C95.1626 28.407 95.5508 27.9286 95.9021 27.6526C96.2534 27.3767 96.8634 27.0823 97.2702 26.9719C97.6769 26.8615 98.7307 26.6959 99.5811 26.5671C100.561 26.4384 101.282 26.2544 101.485 26.052C101.67 25.8864 101.818 25.5368 101.818 25.2793C101.818 25.0401 101.689 24.6353 101.541 24.4145C101.337 24.1202 100.931 23.9362 100.191 23.789C99.3223 23.605 98.9895 23.6234 98.3979 23.8258C97.9542 23.9914 97.566 24.2858 97.4366 24.5433C97.3071 24.8009 97.1592 25.1505 97.1038 25.3345C97.0298 25.5736 96.808 25.6472 96.1609 25.6472C95.403 25.6472 95.329 25.6104 95.329 25.1873C95.329 24.9481 95.4214 24.5065 95.5324 24.2306C95.6433 23.9546 95.9206 23.5314 96.1424 23.2923C96.3643 23.0531 96.8634 22.6851 97.2702 22.5011C97.8803 22.2068 98.3424 22.1516 99.766 22.2068ZM99.0265 28.2414C98.0282 28.407 97.529 28.591 97.2332 28.9037C96.9929 29.1613 96.808 29.5661 96.808 29.8972C96.808 30.1916 96.8819 30.578 96.9559 30.7435C97.0298 30.9091 97.3256 31.1483 97.6029 31.2955C97.8803 31.4243 98.3794 31.5531 98.7122 31.5531C99.045 31.5531 99.6735 31.3691 100.136 31.1299C100.579 30.9091 101.116 30.5044 101.3 30.2652C101.485 29.9892 101.67 29.3453 101.726 28.7381C101.781 28.1494 101.763 27.6894 101.67 27.6894C101.596 27.7078 101.282 27.7814 100.968 27.8734C100.672 27.947 99.8029 28.1126 99.0265 28.2414ZM132.803 22.2068C133.82 22.2436 134.263 22.3355 134.652 22.6483C134.947 22.8507 135.336 23.2555 135.539 23.5314C135.89 23.9914 135.927 24.3594 136.001 32.8226L134.152 32.841V29.1429C134.152 26.328 134.097 25.3345 133.894 24.8745C133.746 24.5433 133.413 24.1754 133.154 24.0466C132.895 23.9178 132.378 23.8074 131.989 23.8074C131.564 23.8074 131.047 23.973 130.658 24.2306C130.326 24.4513 129.882 24.9297 129.697 25.2793C129.42 25.8312 129.364 26.4016 129.346 32.841L127.497 32.8226V22.3355H128.329C129.087 22.3355 129.161 22.3907 129.161 22.7587C129.161 22.9795 129.216 23.2371 129.309 23.3107C129.383 23.3658 129.697 23.2371 129.993 22.9979C130.307 22.7587 130.769 22.4643 131.01 22.3539C131.268 22.2436 132.082 22.1884 132.803 22.2068ZM61.8669 22.3355H63.9005V26.3096C63.9005 30.2468 63.9005 30.2652 64.3627 30.7987C64.7879 31.3139 64.9358 31.3507 65.8971 31.3507C66.877 31.3507 67.0064 31.2955 67.6164 30.67C67.9677 30.2836 68.319 29.6948 68.3929 29.3269C68.4669 28.9773 68.5408 27.2663 68.5223 22.3355L70.4635 22.4275V32.7306L68.7072 32.8226V32.1418C68.7072 31.5899 68.6702 31.5163 68.5223 31.7739C68.4299 31.9578 67.9862 32.3074 67.561 32.565C66.9509 32.9145 66.5072 33.0249 65.5644 33.0433C64.7509 33.0433 64.1408 32.9513 63.6417 32.7122C63.2534 32.5282 62.7543 32.1234 62.5509 31.8291C62.3475 31.5163 62.1072 30.7803 62.0333 30.1548C61.9408 29.5477 61.8854 27.5423 61.8854 25.7024L61.8669 22.3355ZM111.968 22.3355H113.816V32.8226H111.968V22.3355Z" fill="#111111" />
  <path d="M14.3566 13.8541C15.0776 11.9039 15.7062 10.1744 15.7617 10.0457C15.8171 9.89847 15.9465 9.82488 16.0575 9.86167C16.1499 9.89847 16.8154 11.4807 17.518 13.4125C18.2205 15.326 18.8306 17.0554 18.886 17.221C18.9785 17.5338 18.7566 17.5521 16.0205 17.5521C14.3936 17.5521 13.0625 17.5338 13.0625 17.497C13.0625 17.4602 13.6541 15.8227 14.3566 13.8541Z" fill="#111111" />
</svg>