<svg xmlns="http://www.w3.org/2000/svg" enable-background="new 0 0 100 100" viewBox="0 0 100 100" id="business-startup">
  <path d="M27,69h5c0.3,0,0.7-0.2,0.8-0.5l4.7-7.5H41v5c0,0.6,0.4,1,1,1h16c0.6,0,1-0.4,1-1v-5h3.4l4.7,7.5c0.2,0.3,0.5,0.5,0.8,0.5
			h5c0.6,0,1-0.4,1-1v-7.2c0-8.3-3.6-16-10-21.3V38c0-11.1-4.9-21.6-13.4-28.8c-0.4-0.3-0.9-0.3-1.3,0C40.9,16.4,36,26.9,36,38v1.5
			c-6.4,5.3-10,13-10,21.3V68C26,68.6,26.4,69,27,69z M57,65H43v-4h14V65z M72,60.8V67h-3.4L64,59.7V42.2C69.1,47,72,53.7,72,60.8z
			 M38,38c0-10.2,4.4-19.9,12-26.7c7.6,6.8,12,16.5,12,26.7v2v19h-4H42h-4V40V38z M28,60.8c0-7.1,2.9-13.8,8-18.6v17.5L31.4,67H28
			V60.8z"></path>
  <path d="M50 45c5 0 9-4 9-9s-4-9-9-9-9 4-9 9S45 45 50 45zM50 29c3.9 0 7 3.1 7 7s-3.1 7-7 7-7-3.1-7-7S46.1 29 50 29zM88.2 82.2c-1.2 0-2.4.3-3.5.9-1.2-3.7-4.7-6.3-8.7-6.3-2.1 0-4.1.7-5.7 2-2-1.5-4.5-2.2-7.2-1.9-1.6-1.6-3.8-2.6-6-2.8v-4c0-.6-.4-1-1-1s-1 .4-1 1v4.1c-1.4.2-2.8.6-4 1.4V71c0-.6-.4-1-1-1s-1 .4-1 1v4.5c-1.2-.7-2.6-1.2-4-1.4V70c0-.6-.4-1-1-1s-1 .4-1 1v4c-2.3.2-4.4 1.2-6 2.8-2.7-.4-5.2.4-7.2 1.9-1.6-1.3-3.6-2-5.7-2-4.1 0-7.5 2.6-8.7 6.3-1.1-.6-2.3-.9-3.5-.9C7.5 82.2 4 85.7 4 90c0 .6.4 1 1 1h90c.6 0 1-.4 1-1C96 85.7 92.5 82.2 88.2 82.2zM11.8 84.2c1.3 0 2.5.4 3.6 1.3.3.2.7.3 1 .1.3-.1.6-.4.6-.8.5-3.5 3.5-6.1 7.1-6.1 1.9 0 3.6.7 5 2 .4.4 1 .4 1.4 0 1.5-1.3 3.3-2 5.3-2 .5 0 1 0 1.5.1.3.1.7-.1.9-.3 1.5-1.6 3.6-2.6 5.8-2.6 2 0 4 .8 5.4 2.2.4.4 1 .4 1.4 0 1.5-1.4 3.4-2.2 5.4-2.2 2.2 0 4.3.9 5.8 2.6.2.3.6.4.9.3.5-.1 1-.1 1.5-.1 1.9 0 3.8.7 5.3 2 .4.4 1 .3 1.4 0 1.3-1.3 3.1-2 5-2 3.6 0 6.5 2.6 7.1 6.1.1.4.3.6.6.8.3.1.7.1 1-.1 1.1-.8 2.3-1.3 3.6-1.3 2.9 0 5.2 2.1 5.7 4.8H6.1C6.6 86.3 9 84.2 11.8 84.2z"></path>
</svg>
