<svg xmlns="http://www.w3.org/2000/svg" enable-background="new 0 0 68 68" viewBox="0 0 68 68" id="cloud-computing">
	<path fill="#EAF0F6" d="M5.9608278,46.3694611c-0.7323036,0.4227982-0.7421703,1.1124458-0.0087013,1.5386887l16.0884972,9.2602234
		c0.733469,0.4262428,1.9241009,0.4227829,2.6564045-0.0000114l27.2574921-15.7371216
		c0.738327-0.4262733,0.7481956-1.115921,0.0147247-1.5421677l-16.0884972-9.2602196
		c-0.7334709-0.4262466-1.9241028-0.4227848-2.6624298,0.0034885L5.9608278,46.3694611z"></path>
	<path fill="#98ACC3" d="M34.0284843,8.3062296c-0.2350388-0.1409302-0.5734787-0.1221094-0.9401474,0.0941067L5.8334146,24.1384277
		c-0.7426972,0.4230213-1.3444066,1.4572773-1.3349957,2.3033199l0.0469961,19.2632275
		c0,0.413723,0.1503983,0.7145233,0.3948464,0.8556824l-2.5002973-1.4559212
		c-0.2350373-0.1411591-0.3854358-0.4325447-0.3854358-0.8556824L1.9981215,24.9858265
		c0-0.8461571,0.6016519-1.8802986,1.334996-2.3033199L30.5880375,6.944416
		c0.3760834-0.2162156,0.7051125-0.2350373,0.9495602-0.0941067L34.0284843,8.3062296z"></path>
	<path fill="#EAF0F6" d="M6.3468204,26.4405022c0.0031624-0.1911106,0.2421641-0.6067657,0.405715-0.7057095l25.8248043-14.906641
		L32.627491,28.434288c-0.0054245,0.1829796-0.2448769,0.5941162-0.4061699,0.6917038L6.3938074,44.033989L6.3468204,26.4405022z"></path>
	<path fill="#98ACC3" d="M52.5193977,44.4048691c0,0.2845688-0.1896935,0.5691376-0.5585899,0.7798615l-27.2534122,15.734539
		c-0.73773,0.4321289-1.9180756,0.4321289-2.6558056,0L5.9588323,51.6662674
		c-0.3688979-0.2214012-0.5480399-0.4954224-0.5480399-0.7588921l-0.0105491-3.7623062
		c0,0.2740173,0.1896911,0.5585861,0.5480399,0.7587624l16.092823,9.2636795c0.7376671,0.4319992,1.9180756,0.4214478,2.6557426,0
		l27.2639599-15.734539c0.3688965-0.2212715,0.5480385-0.5058403,0.5480385-0.7798615L52.5193977,44.4048691z"></path>
	<path fill="#BAC5CE" d="M37.0359497,47.5228615L36.91222,47.5949821l-5.7535667,3.35112
			c-0.0516052,0.0205154-0.0825062,0.030838-0.1237907,0.0514793c-0.2474575,0.0928917-0.5567799,0.0722504-0.7630138-0.0514793
			l-3.1036606-1.8147697l-0.2990017-0.1753349c-0.2268143-0.1339226-0.2268143-0.350544,0-0.494915l5.8980026-3.413044
			c0.2680359-0.1339226,0.6289635-0.1339226,0.8764191,0l0.1237297,0.0722466l3.2686119,1.9075356
			C37.262825,47.1618729,37.2937279,47.3783646,37.0359497,47.5228615z"></path>
	<path fill="#CBD6E3" d="M36.91222,47.5959663l-5.7535667,3.35112c-0.0516052,0.0206413-0.0825062,0.0309639-0.1237907,0.0514793
			c-0.2474575,0.0927658-0.5567799,0.0721245-0.7630138-0.0514793l-3.1036606-1.8147697l5.7845936-3.3511162
			c0.2577782-0.1341782,0.6289635-0.1341782,0.8661003,0l0.1237259,0.0824432L36.91222,47.5959663z"></path>
	<path fill="#C1CCD6" d="M15.8845081 50.3545456c-.0993395.057354-.0998583.1515808-.0011873.2089233l1.9879007 1.1552429c.098671.0573425.2578087.055294.3571491-.0020599l2.7246075-1.5730553c.0993271-.0573463.103384-.1495171.0047131-.2068596l-1.9879017-1.1552429c-.098671-.0573387-.2613468-.0573463-.3606739 0L15.8845081 50.3545456zM23.7838936 42.2495956c-.0993404.057354-.0998592.1515808-.0011883.2089233l1.9879017 1.1552429c.098671.0573387.2613468.0573463.3606873-.0000076l2.0008812-1.1552086c.0993404-.057354.0963097-.1495323-.0023613-.2068748l-1.9879017-1.1552429c-.0986691-.0573387-.2577953-.0593948-.3571358-.0020409L23.7838936 42.2495956zM26.9519596 40.4205132c-.099329.0573463-.0998478.1515732-.0011768.2089157l1.9879017 1.1552429c.098671.0573387.2613468.0573463.3606739 0l2.0008831-1.1552086c.0993404-.057354.0963097-.1495323-.0023613-.2068748l-1.9879017-1.1552429c-.098671-.0573425-.2577972-.0593987-.3571377-.0020447L26.9519596 40.4205132z"></path>
	<g>
		<path fill="#C1CCD6" d="M15.9711313 43.1344223c-.0993404.057354-.0999069.1515541-.0011883.2089233l1.9878531 1.1552162c.0987186.0573692.2613468.0573502.3606873-.0000076l2.0008812-1.1552086c.0993404-.057354.0999069-.1515541.0011883-.2089233l-1.987854-1.1552124c-.0987186-.0573692-.2613449-.0573502-.3606853.0000038L15.9711313 43.1344223zM20.6158161 44.0786858c-.099329.0573463-.0998459.1515732-.0011749.2089157l1.9879017 1.1552429c.0986691.0573425.2613449.0573502.3606739 0l2.0008945-1.1552162c.0993271-.0573463.0962963-.1495247-.0023746-.2068672l-1.9878998-1.1552429c-.098671-.0573387-.2577972-.0593948-.3571262-.0020485L20.6158161 44.0786858zM12.8314438 44.9471245c-.0993404.057354-.0963583.1495056.0023603.2068748l1.987854 1.1552124c.0987186.0573692.2577972.0593987.3571377.0020447l2.0008821-1.1552124c.0993404-.057354.0999069-.1515541.0011883-.2089195l-1.987854-1.1552162c-.0987186-.0573692-.2613459-.0573502-.3606863.0000038L12.8314438 44.9471245zM17.4477501 45.9077682c-.0993404.057354-.0998573.1515808-.0011864.2089233l1.9879017 1.1552429c.0986691.0573425.2613449.0573502.3606853-.0000038l2.0008831-1.1552124c.0993404-.057354.0963097-.1495323-.0023613-.2068748l-1.9879017-1.1552391c-.098671-.0573425-.2577972-.0593987-.3571377-.0020447L17.4477501 45.9077682zM19.8827248 48.0461769c-.099329.0573463-.0998478.1515732-.0011768.2089157l1.9879017 1.1552429c.098671.0573387.2578087.0552902.3571377-.0020561l15.9716167-9.2212181c.0993423-.057354.0998497-.1474762.0011787-.2048187l-1.9879036-1.1552429c-.098671-.0573387-.2577972-.0593948-.3571358-.0020409L19.8827248 48.0461769z"></path>
	</g>
	<path fill="#C1CCD6" d="M37.1244125 38.0916824c-.0993385.057354-.0998573.1515808-.0011864.2089195l1.9879036 1.1552429c.0986671.0573425.2578049.055294.3571472-.0020599l2.7246056-1.5730515c.0993423-.057354.1033974-.1495285.0047264-.2068672l-1.9879036-1.1552429c-.098671-.0573425-.2613449-.0573502-.3606834.0000038L37.1244125 38.0916824zM33.2489967 36.7971535c-.0993271.0573502-.1033859.1495209-.0011749.2089157l1.9843636 1.1531868c.1022072.0593987.2613449.0573502.360672.0000038l3.5512199-2.0503006c.0993423-.057354.1033974-.1495247.0011902-.2089195l-1.9843636-1.1531868c-.102211-.0593987-.2613487-.0573502-.3606873.0000038L33.2489967 36.7971535zM30.1200237 38.5914268c-.0993271.0573502-.0998459.151577-.0011749.2089157l1.9879017 1.1552429c.098671.0573425.2613449.0573502.3606758.0000038l2.0008926-1.1552162c.0993271-.0573502.0962982-.1495285-.0023727-.2068672l-1.9879036-1.1552429c-.098671-.0573425-.2577972-.0593987-.3571243-.0020523L30.1200237 38.5914268zM28.5227833 35.887722c-.0993271.0573502-.0998936.1515503-.0011749.2089157l1.987854 1.1552162c.0987186.0573692.2613449.0573502.3606739 0l2.0008926-1.1552162c.0993309-.0573463.0963478-.149498-.0023727-.2068672l-1.9878521-1.1552124c-.0987186-.0573692-.2577972-.0593987-.3571262-.0020523L28.5227833 35.887722zM31.6589355 34.0770645c-.0993404.057354-.0999069.1515541-.0011883.2089233l1.9878521 1.1552162c.0987206.0573692.2613487.0573463.3606873-.0000076l2.0008812-1.1552086c.0993423-.057354.0999069-.1515541.0011902-.2089233l-1.987854-1.1552124c-.0987206-.0573692-.2613449-.0573502-.3606873.0000038L31.6589355 34.0770645zM25.3830967 37.7004242c-.099329.0573463-.0998955.1515465-.0011768.2089157l1.987854 1.1552124c.0987186.0573692.2613468.0573502.3606739.0000038l2.0008945-1.1552162c.099329-.0573502.0998955-.1515503.0011768-.2089157l-1.987854-1.1552162c-.0987186-.0573692-.2613468-.0573502-.3606739 0L25.3830967 37.7004242zM19.1072693 41.3237724c-.0993404.057354-.0998936.1515465-.0011749.2089157l1.987854 1.1552162c.0987186.0573692.2613335.057354.3606739 0l2.0008812-1.1552086c.0993404-.057354.0999069-.1515541.0011883-.2089233l-1.987854-1.1552124c-.0987186-.0573692-.2613449-.0573502-.3606853.0000038L19.1072693 41.3237724zM22.2469578 39.5110741c-.099329.0573463-.0998955.1515465-.0011768.2089157l1.987854 1.1552162c.0987186.0573654.2613468.0573463.3606739 0l2.0008945-1.1552162c.099329-.0573463.0963459-.149498-.0023727-.2068672l-1.987854-1.1552162c-.0987186-.0573692-.2577972-.0593948-.3571243-.0020485L22.2469578 39.5110741zM12.8357048 48.5827751c-.0993404.057354-.1033964.1495247-.0011883.2089233l1.9843636 1.1531868c.1022091.0593948.2613459.0573463.3606863-.0000076l3.5512075-2.0502892c.0993404-.057354.1033974-.1495247.0011883-.2089233l-1.9843636-1.1531868c-.1022091-.0593948-.2613468-.0573502-.3606853.0000076L12.8357048 48.5827751zM9.6953049 46.7577744c-.0993404.057354-.0999069.1515541-.0011883.2089233l1.987854 1.1552124c.0987186.0573692.2613459.0573502.3606863-.0000038l2.0008821-1.1552086c.099328-.0573502.0998945-.1515465.0011759-.2089157l-1.987854-1.1552162c-.0987186-.0573692-.2613459-.0573502-.3606739 0L9.6953049 46.7577744z"></path>
	<path fill="#EAF0F6" d="M54.7587166 14.8210869l-3.2264214 1.8797436c-.8429451-2.6161232-2.7032928-5.164238-4.8736382-6.4141674-1.4920959-.8623428-2.8388939-.9398127-3.8175011-.3778887l3.2361794-1.8797436c.9689102-.5618057 2.3253441-.4844542 3.8175011.3780069C52.0554848 9.6568489 53.9254684 12.2050819 54.7587166 14.8210869zM61.2954979 38.4430771l3.2336769-1.8792c.9031219-.5248489 1.4633942-1.6408615 1.4678955-3.2287712.0085526-3.0181713-2.0056496-6.6704445-4.5778809-8.4084072l-3.2336769 1.8792095c2.5722275 1.7379627 4.5864334 5.3902359 4.577877 8.4084053C62.7588882 36.8022232 62.1986198 37.9182396 61.2954979 38.4430771z"></path>
	<path fill="#EAF0F6" d="M58.1855087,26.8059082l3.2336845-1.8792038c0.0349197-0.2439308,0.050312-0.4991322,0.0510941-0.7740517
			c0.0090485-3.1921177-2.2392044-7.0862198-5.0172043-8.6900988c-0.5907516-0.3410702-1.1623077-0.5530767-1.6902122-0.6387405
			l-3.2336693,1.8792181c0.5278931,0.0856552,1.099453,0.2976608,1.6902008,0.638731
			c2.7780037,1.6038799,5.0262566,5.497982,5.0172043,8.6900997C58.2358284,26.3067818,58.2204323,26.5619812,58.1855087,26.8059082
			z"></path>
	<path fill="#CBD6E3" d="M46.6571503,10.2826109c-2.9586411-1.7081718-5.368515-0.3404913-5.37817,3.0648346
			c-0.0018768,0.6619959,0.0841866,1.3522825,0.2533646,2.0512266c-2.3801956-0.4750872-4.1060371,1.1020889-4.114624,4.1315212
			c-0.010704,3.7755871,2.6414566,8.3693295,5.9272118,10.2663612l14.3684616,8.2956352
			c2.7779999,1.603878,5.0409279,0.3198738,5.0499954-2.8778763c0.0085564-3.0181694-2.0056496-6.6704426-4.5778809-8.4084053
			c0.0349236-0.243927,0.0503197-0.4991264,0.0510979-0.7740459c0.0090523-3.1921177-2.2392006-7.0862198-5.0172043-8.6900997
			c-0.5907478-0.3410702-1.1623077-0.5530758-1.6902122-0.6387405
			C50.6905899,14.0891485,48.8248711,11.5341454,46.6571503,10.2826109z"></path>
	<g>
		<path fill="#33475C" d="M6.2692647,44.2505455c0.0385742,0.0219727,0.081543,0.0332031,0.1245117,0.0332031
			s0.0864258-0.0112305,0.125-0.0336914L32.3508072,29.339901c0.2333984-0.1416016,0.519043-0.628418,0.5268555-0.90625
			l-0.050293-17.605957c-0.0004883-0.0893555-0.0478516-0.171875-0.1254883-0.2163086
			c-0.0771484-0.0439453-0.1723633-0.0444336-0.2495117,0.0004883L6.6237569,25.5210533
			c-0.2373047,0.1425781-0.5224609,0.6391602-0.5268555,0.9199219l0.046875,17.5932617
			C6.1437764,44.1235924,6.191628,44.2061119,6.2692647,44.2505455z M6.8776631,25.9512291l25.4511719-14.6909189
			l0.0488281,17.1660156c-0.0063477,0.1069336-0.1962891,0.4296875-0.28125,0.4833984L6.6427999,43.6016197L6.5969014,26.4443932
			C6.6003194,26.3355064,6.7897725,26.0068932,6.8776631,25.9512291z"></path>
		<path fill="#33475C" d="M52.3415298,39.2349205l-16.0864258-9.2617188
			c-0.359375-0.2045898-0.7963867-0.3383789-1.2617188-0.3901367c0.1518555-0.3862305,0.2353516-0.7861328,0.2304688-1.159668
			l-0.046875-19.2617188c0-0.6518555-0.2514648-1.1708984-0.6977539-1.4575195
			c-0.0219727-0.0161133-0.0449219-0.03125-0.0688477-0.0454102L31.914772,6.1997633
			c-0.4853516-0.2792969-1.0996094-0.2504883-1.6982422,0.0952148L2.9621358,22.0327721
			c-0.9750975,0.5625-1.7104491,1.8320313-1.7104491,2.9555664l0.0566406,19.2607422
			c0,0.6660156,0.2729492,1.2124023,0.7592772,1.5043945l2.3994141,1.3891602
			c0.0107422,0.0068359,0.0249023,0.015625,0.0400391,0.0249023c0.0478516,0.03125,0.097168,0.059082,0.1479492,0.0839844
			l0.0087891,3.6494141c0,0.3242188,0.1186523,0.9384766,0.9213867,1.4116211l16.0917969,9.2587891
			c0.9643497,0.5568199,2.4353962,0.5577583,3.4013672,0l27.2539063-15.7373047
			c0.597168-0.3432617,0.9399414-0.8647461,0.9399414-1.4321289l-0.0092773-3.7460938
			C53.2629166,40.3281822,53.1442642,39.708065,52.3415298,39.2349205z M51.7770767,44.3721275
			c0,0-0.0341797,0.0708008-0.1938477,0.1625977l-27.2548828,15.737793c-0.1575317,0.0908203-0.3713379,0.140564-0.597168,0.1715088
			v-2.6494751c0.4226685-0.0443115,0.824585-0.1403809,1.140625-0.3228149
			c35.2809639-20.3630295,24.9366112-14.3926048,26.8959961-15.5234985L51.7770767,44.3721275z M2.8493428,44.4775963
			c-0.0004883-0.0004883-0.0410156-0.0595703-0.0410156-0.230957L2.7516866,24.9858971
			c0-0.1387939,0.0291138-0.2905884,0.0765381-0.4441528l1.5259399,0.8865356
			c-0.1323853,0.3354492-0.2128296,0.6818848-0.2128296,1.0092773l0.0457764,15.8431396l0.0073242,2.9735107L2.8493428,44.4775963z
			 M24.5231705,56.8638268c-0.6585846,0.3750153-1.8005638,0.2975044-2.3071289,0.0004883L6.2023091,47.6459923l0.0064087-0.5390015
			c0.1639404-0.1483765,0.237793-0.3549194,0.2359009-0.5630493l26.6116333-15.3562012
			c0.2012939,0.1097412,0.4440918,0.135437,0.6661377,0.0354614c0.503418-0.2299805,1.3432617-0.2006836,1.7875977,0.0517578
			l16.0766602,9.2558594c0.1264648,0.074707,0.168457,0.1323242,0.1757813,0.1323242c0,0,0.0004883,0,0.0004883-0.0004883
			l0.0018311,0.473877C48.9793053,42.7446404,61.8551521,35.3110695,24.5231705,56.8638268z M4.8483663,26.4380455
			c-0.0078125-0.7192383,0.5224609-1.6333008,1.159668-1.996582L33.2438126,8.7144728l0.281311,0.1644897
			c0.0283203,0.019043,0.0581055,0.0361328,0.0893555,0.0517578l0.0288086,0.0170898
			c0.0112305,0.0214844,0.0336914,0.0893555,0.0336914,0.2158203l0.046875,19.2709961
			c0.0063477,0.4975586-0.3369141,1.1650391-0.7807617,1.5200195c-0.1845093,0.1473999-0.2706299,0.3665771-0.2700806,0.588501
			L6.06498,45.9053307c-0.1994629-0.1105347-0.4408569-0.1375732-0.6619263-0.0405273
			c-0.0561523,0.0249023-0.090332,0.03125-0.0869141,0.0395508c-0.0244141-0.015625-0.0678711-0.0419922-0.0810547-0.0493164
			l-0.3380127-0.1951294L4.889565,43.2075157L4.8483663,26.4380455z M5.6476827,23.8311119
			c-0.3757324,0.218689-0.7106934,0.5700684-0.9718628,0.9743652l-1.5326538-0.8905029
			c0.1643066-0.2437744,0.3582153-0.4614868,0.5684814-0.5828857L30.9655533,7.5942945
			c0.1425781-0.0820313,0.2172852-0.0844727,0.1972656-0.0966797l1.3776855,0.805603L5.6476827,23.8311119z M6.1927876,48.4504967
			l15.6721802,9.020752c0.3217163,0.1869507,0.7330322,0.284729,1.1660156,0.3265991v2.6467896
			c-0.2285156-0.0307007-0.4452515-0.0805664-0.6049805-0.1726074L6.3400655,51.0166588
			c-0.1103516-0.0649414-0.1616211-0.1210938-0.1733398-0.1210938c-0.0019531,0-0.0029297,0.0014648-0.0029297,0.003418
			L6.1927876,48.4504967z"></path>
		<path fill="#33475C" d="M62.2092056,24.5718346c0.0092773-0.1367188,0.0141602-0.2763672,0.0141602-0.4174805
			c0.0107422-3.4838867-2.3583984-7.5874023-5.3959961-9.3442392c-0.5058594-0.2905273-1.0068359-0.5019531-1.4946289-0.6318359
			c-0.9663086-2.6918945-2.9189453-5.1806641-5.0625-6.4208984c-3.8023987-2.1967683-5.4926147,0.56106-7.6894531,1.4384766
			c-1.3110352,0.6865234-2.0385742,2.159668-2.0493164,4.1523438c0,0.4067383,0.0273438,0.8154297,0.081543,1.2216797
			c-2.3925781,0.0551758-3.9379883,1.9882822-3.9477539,4.9580088c-0.0107422,4.074707,2.7587891,8.8720703,6.3046875,10.921875
			l14.371582,8.2954102c0.9130859,0.5229492,1.8007813,0.7880859,2.6376953,0.7880859
			c0.625,0,1.1967773-0.1489258,1.6645508-0.4238281c0.0239258-0.012207,0.0517578-0.0288086,0.0810547-0.0473633
			l3.1738281-1.8481445c1.1816406-0.6787109,1.8383789-2.0541992,1.8496094-3.8745117
			C66.7580338,30.2275963,64.8312759,26.5449791,62.2092056,24.5718346z M40.7179947,16.0689049
			c0.2133789,0,0.4379883,0.0229492,0.668457,0.0688477c0.2514648,0.0517578,0.5117188-0.03125,0.6884766-0.2172861
			c0.4875603-0.5090494-0.043457-0.809474-0.043457-2.5683594c0.0151711-2.9138355,1.7288246-2.933918,2.2983398-3.4391479
			c4.5902634,0.1214962,6.8897057,7.0434732,7.0776367,7.1144419c0.010498,0.0040283,0.0217285,0.0031128,0.0324097,0.0061035
			c0.0119629,0.0032959,0.0205688,0.0133057,0.03302,0.0153809c3.3433495,0.5386143,6.9108772,5.9222317,6.362793,9.7451172
			c-0.0007629,0.0213375,0.0331268,0.1556053,0.0354614,0.1605225c0.0264282,0.0559082,0.0653076,0.1055298,0.1183472,0.1412354
			c3.0679207,2.0729675,5.4462433,7.2789421,3.9910278,10.0819092l-1.0105591,0.588501
			c-0.0166016,0.0097656-0.0327148,0.0200195-0.0488281,0.0307617l-0.0004883-0.0009766
			c-0.6962891,0.4067383-1.737793,0.2753906-2.831543-0.3510742l-14.3686523-8.2939453
			c-3.0722656-1.7758789-5.5644531-6.0913086-5.5551758-9.6186523
			C38.1720963,17.3633385,39.1266861,16.0689049,40.7179947,16.0689049z M49.5192642,9.0562086
			c1.9018555,1.1000977,3.6325684,3.3691406,4.4588013,5.8143921l-2.2527466,1.312562
			c-1.0212402-2.813447-3.547554-6.0999813-6.4173584-6.8391733C45.9779205,9.1306734,46.9697533,7.5816255,49.5192642,9.0562086z
			 M60.6724014,24.9558067l-2.0872192,1.2127075c0.0813637-3.7020206-2.8353462-8.3644352-6.1533203-9.5854492l1.9399414-1.1273813
			c0.0811157,0.0494995,0.168457,0.0894165,0.265625,0.1054077c0.4501953,0.0737305,0.9360352,0.2587891,1.4414063,0.5488291
			c2.5263672,1.4609375,4.6533203,5.1430664,4.6445313,8.0419922
			C60.7233658,24.5891762,60.6651115,24.7732906,60.6724014,24.9558067z M62.9327774,36.6231041
			c0.8182564-3.1793709-1.3186836-7.6254826-4.1062622-9.7850952l2.1906128-1.2727661
			c2.3823242,1.616394,4.2394409,5.0221558,4.2311401,7.767334c-0.0078125,1.262207-0.3974609,2.1787109-1.1005859,2.5830078
			L62.9327774,36.6231041z"></path>
	</g>
	<g>
		<polygon fill="#CBD6E3" points="19.572 32.043 19.575 32.82 8.071 39.462 8.068 38.685"></polygon>
		<polygon fill="#CBD6E3" points="19.567 30.079 19.569 30.847 8.065 37.489 8.063 36.721"></polygon>
		<polygon fill="#CBD6E3" points="19.561 28.115 19.564 28.883 8.059 35.525 8.057 34.757"></polygon>
		<path fill="#CBD6E3" d="M18.6083717,22.7973194c0.5127735-0.2960491,0.9377289-0.0623798,0.9393997,0.5268154
					l0.0047207,1.6651955c0.0016708,0.5891933-0.4205494,1.3205662-0.9333229,1.6166153L8.987855,32.1665878
					c-0.5202074,0.3003426-0.9377594,0.0538139-0.9394302-0.5353813L8.043704,29.966011
					c-0.0016699-0.5891953,0.413146-1.3077068,0.9333544-1.6080494L18.6083717,22.7973194z"></path>
		<path fill="#7D8BD1" d="M26.1910133,24.5351124l3.4496536,1.130373
					c-0.8590298,1.5651379-2.0981922,2.9563446-3.4804688,3.7544022c-1.1593227,0.6693363-2.2382813,0.8046684-3.0728645,0.4910145
					L26.1910133,24.5351124z"></path>
		<path fill="#F77B9D" d="M25.7204552,18.716795l0.0148888,5.2517891l-3.2295876,5.6024303
					c-0.7012558-0.5445805-1.1283417-1.5297146-1.1321659-2.8789425
					C21.3654556,23.8228893,23.2761478,20.3674679,25.7204552,18.716795z"></path>
		<path fill="#40BBCE" d="M26.5453587,18.2405376c2.4456635-1.172554,4.3770924,0.0646172,4.3852253,2.9337997
					c0.0031471,1.1101685-0.2837524,2.3107643-0.7792206,3.4606571l-3.5911884-1.1682663L26.5453587,18.2405376z"></path>
	</g>
	<g>
		<polygon fill="#BA753C" points="55.883 26.787 54.42 25.944 54.4 32.087 51.193 30.237 51.213 24.094 49.749 23.251 52.821 21.003"></polygon>
		<polygon fill="#38C1AA" points="47.821 24.278 49.284 25.121 46.203 27.359 43.151 21.584 44.614 22.427 44.634 16.284 47.831 18.135"></polygon>
	</g>
</svg>
