<svg xmlns="http://www.w3.org/2000/svg" enable-background="new 0 0 504 504" viewBox="0 0 504 504" id="enterprise">
  <path d="M229.181,119.061c0-2.209-1.791-4-4-4s-4,1.791-4,4c0,15.638,11.709,28.583,26.819,30.551v11.408c0,2.209,1.791,4,4,4
		s4-1.791,4-4v-11.408c15.11-1.968,26.819-14.913,26.819-30.551c0-17.661-13.753-24.232-26.819-29.523V42.962
		c10.681,1.897,18.819,11.243,18.819,22.461c0,2.209,1.791,4,4,4s4-1.791,4-4c0-15.638-11.709-28.583-26.819-30.551V23.464
		c0-2.209-1.791-4-4-4s-4,1.791-4,4v11.408c-15.11,1.968-26.819,14.913-26.819,30.551c0,17.661,13.753,24.232,26.819,29.523v46.576
		C237.319,139.624,229.181,130.278,229.181,119.061z M256,98.217c11.826,5.082,18.819,9.952,18.819,20.843
		c0,11.218-8.138,20.564-18.819,22.461V98.217z M229.181,65.423c0-11.218,8.138-20.564,18.819-22.461v43.304
		C236.174,81.184,229.181,76.314,229.181,65.423z"></path>
  <path d="M491.483,460h-22.261V289.615c5.335-5.207,8.656-12.468,8.656-20.494v-38.638c0-0.399-0.06-0.797-0.178-1.179
		L435.08,91.063c-0.517-1.677-2.067-2.821-3.822-2.821H344.15C342.048,39.229,301.522,0,252,0s-90.048,39.229-92.15,88.242H72.742
		c-1.755,0-3.306,1.145-3.822,2.821L26.299,229.305c-0.118,0.382-0.178,0.779-0.178,1.179v38.638c0,8.026,3.321,15.287,8.656,20.494
		V460H12.517C5.615,460,0,465.615,0,472.517v18.967C0,498.385,5.615,504,12.517,504h478.967c6.901,0,12.517-5.615,12.517-12.517
		v-18.967C504,465.615,498.385,460,491.483,460z M469.879,269.121c0,11.389-9.265,20.653-20.653,20.653s-20.653-9.265-20.653-20.653
		v-34.638h41.307V269.121z M160.278,325.387H86.343c-6.475,0-11.742,5.268-11.742,11.742V460H42.777V295.132
		c3.652,1.691,7.715,2.642,11.997,2.642c10.479,0,19.657-5.657,24.653-14.074c4.997,8.417,14.175,14.074,24.653,14.074
		c10.478,0,19.656-5.657,24.652-14.074c4.997,8.417,14.175,14.074,24.653,14.074s19.657-5.657,24.653-14.074
		c4.997,8.417,14.175,14.074,24.653,14.074s19.657-5.657,24.653-14.074c4.997,8.417,14.175,14.074,24.653,14.074
		s19.657-5.657,24.653-14.074c4.997,8.417,14.175,14.074,24.653,14.074s19.657-5.657,24.653-14.074
		c4.997,8.417,14.175,14.074,24.653,14.074s19.657-5.657,24.653-14.074c4.997,8.417,14.174,14.074,24.652,14.074
		c10.479,0,19.657-5.657,24.653-14.074c4.997,8.417,14.175,14.074,24.653,14.074c4.282,0,8.345-0.951,11.997-2.642V460H172.021
		V337.129C172.021,330.654,166.753,325.387,160.278,325.387z M164.021,337.129V460h-81.42V337.129c0-2.063,1.679-3.742,3.742-3.742
		h73.936C162.342,333.387,164.021,335.065,164.021,337.129z M132.733,269.121v-34.638h41.307v34.638
		c0,11.389-9.265,20.653-20.653,20.653S132.733,280.51,132.733,269.121z M182.854,226.483l11.583-62.221
		c9.718,7.782,21.036,13.641,33.377,16.997l-4.12,45.224H182.854z M272.653,234.483v34.638c0,11.389-9.265,20.653-20.653,20.653
		s-20.653-9.265-20.653-20.653v-34.638H272.653z M280.305,226.483l-4.12-45.224c12.341-3.357,23.659-9.215,33.377-16.997
		l11.583,62.221H280.305z M329.96,269.121v-34.638h41.307v34.638c0,11.389-9.265,20.653-20.653,20.653S329.96,280.51,329.96,269.121
		z M382.553,96.242l36.735,130.241H378.38L345.382,96.242H382.553z M252,8c46.451,0,84.242,37.791,84.242,84.242
		S298.451,176.483,252,176.483s-84.242-37.79-84.242-84.241S205.549,8,252,8z M158.618,96.242L125.62,226.483H84.712l36.735-130.241
		H158.618z M34.121,269.121v-34.638h41.307v34.638c0,11.389-9.265,20.653-20.653,20.653S34.121,280.51,34.121,269.121z"></path>
  <path d="M97.767 379.774c-2.209 0-4 1.791-4 4V413c0 2.209 1.791 4 4 4s4-1.791 4-4v-29.226C101.767 381.565 99.976 379.774 97.767 379.774zM207.375 428.572h218.024c2.209 0 4-1.791 4-4v-95.186c0-2.209-1.791-4-4-4H207.375c-2.209 0-4 1.791-4 4v95.186C203.375 426.781 205.166 428.572 207.375 428.572zM211.375 333.387h101.012v87.186H211.375V333.387z"></path>
</svg>
